<?xml version="1.0" encoding="utf-8"?>
<!-- Generator: Adobe Illustrator 20.1.0, SVG Export Plug-In . SVG Version: 6.00 Build 0)  -->
<svg version="1.1" id="Layer_1" xmlns="http://www.w3.org/2000/svg" xmlns:xlink="http://www.w3.org/1999/xlink" x="0px" y="0px"
	 viewBox="0 0 463.8 458.9" style="enable-background:new 0 0 463.8 458.9;" xml:space="preserve">
<style type="text/css">
	.st0{fill:#FFFFFF;}
	.st1{fill:none;stroke:#FFFFFF;stroke-width:5;stroke-linecap:round;stroke-linejoin:round;}
	.st2{fill:none;stroke:#FFFFFF;stroke-width:5;stroke-miterlimit:10;}
	.st3{fill:none;}
</style>
<title>Artboard 1VectorWhite</title>
<path class="st0" d="M168,129.1l5.5-2.5c0,0,0.2-5.2,3-7.5c1.7-1.4,3.1-3,4.3-4.8c0,0,3.3,0,4.8,2s6.5-1.2,7.8-3.5
	s18.2-23.3,18.2-23.3l8.7-3.7l11.1-16.8l23.9,29c0,0,5.7,7.5,12.8-0.5c0,0,15,24,29.2,36.8h-3l-16.2-19.8l0.3,5.7l-11.2-15.7
	l-0.3,8.8l-15.3-13.5l-4.3-0.5l-4.3-3.8l0.8,20.1l-12.3-29.7l-2,7.8c-0.7,0-2.3-5.6-8.4,6.2v-5.3l-12.5,15.5c0,0,8.5-16.8-4.2-1.8
	s-17.8,20.2-17.8,20.2l-1.5-8.2l-8.2,8.7h-3.7l-2.5,2.8L168,129.1z"/>
<path class="st0" d="M226.1,184.9l15.7-11.3l2.5,11.3l45-36l-4.3,11.5l23.5-20.8l-1.5,7.8c0,0,3.8,0.7,8.3-6.2s11.3-3.2,11.3-3.2
	l4.8-9.7l21.7,40.2l-3.5-27.5l7,4.8c5.1-0.6,10.2,0.7,14.3,3.7c7,5,14.5,9.3,14.5,9.3l8.5,5.7v-11.7l22.3,21.7l-3.8-8.7l3.5,0.7
	l44.9,35.3v-4c0,0-43.2-26.3-65-54.9c0,0-13.3,13.3-27-2s-38.7-35.3-38.7-35.3l-20.7,21.8c0,0-6.3,5-18.5,6.2l-38.7,34.5
	c-5.4,1.5-11.2,0.7-16-2.2c0,0-8.2,1.7-14.3,10.3S226.1,184.9,226.1,184.9z"/>
<path class="st0" d="M57,184.3l44-34.6c0,0,4.8-1.7,2,2.3s-6.2,8.8-6.2,8.8l22.2-19.7c0,0,4-3.7,2.7,1s-2,6.3-2,6.3l9.8-8.7
	c0,0,4.8-5.3,9.8-1.3l4.8-10l22.2,40.7l-4.2-28.5l7.3,5.7c0,0,9.7-1.2,11.7,2.2l25.3,16.3v-12l20.7,19.4l2.1-1.1l3-1.5l-24.5-27
	c0,0-9.8,12.5-21.7,2.3s-43.2-39.4-43.2-39.4l-21.3,21.8c-5.7,2.8-11.7,4.8-18,6l-38.5,34.5c0,0-7.3,3.3-16.7-2.3
	c0,0-17,9.3-15.5,16.2l5.2,3.3l16.5-11.7L57,184.3z"/>
<path class="st0" d="M26.1,183.1L2,197.7c0,0,18-0.4,29.1-12.6C31.1,185.1,35,181.4,26.1,183.1z"/>
<path class="st0" d="M212.8,183.8L186,199.1c0,0,15.7-0.3,31.3-12.5C217.3,186.6,224.1,180.6,212.8,183.8z"/>
<path class="st0" d="M194.3,229.4c0-3.7,0.5-7.3,1.6-10.8c-1.7,2.6-9.5,13.7-23.1,13.6c-15.3-0.1-51.7-1.7-64.3,8.1
	c0,0,13.1,8.3,46,8.5c14.1-1.6,28-4.2,41.7-7.8C194.9,237.4,194.3,233.4,194.3,229.4z"/>
<path class="st1" d="M194.3,229.4c0-3.9,0.6-7.7,1.8-11.4c-29.8-7-111.7-21.7-193.6,3v16.5c0.3,0,95,29.3,193.6,3.4
	C194.9,237.2,194.3,233.3,194.3,229.4z"/>
<path class="st0" d="M9.6,224.9c0-0.8,74.2-23.5,178.4-3.3c0,0-0.2,3.6-11.3,5.6c-2.7,0.5-5.4,0.7-8.1,0.6c-11.3-0.1-56.8,0-63.8,10
	c0,0-47.2,0.3-95.2-10.8L9.6,224.9z"/>
<path class="st0" d="M309.4,210c-14.1,1.6-28.2,4.2-41.9,7.8c2.4,7.5,2.5,15.5,0.1,23h0.1c0,0,8.1-14.3,23.4-14.2s51.7,1.7,64.3-8.1
	C355.3,218.5,342.3,210.2,309.4,210z"/>
<path class="st1" d="M267.5,218.1c2.4,7.4,2.4,15.4,0,22.8c29.6,7,111.7,21.8,193.8-3v-16.5C461,221.3,366.2,192,267.5,218.1z"/>
<path class="st0" d="M454.3,234c0,0.8-74.2,23.5-178.4,3.3c0,0,0.2-3.6,11.3-5.6c2.7-0.5,5.4-0.7,8.1-0.6c11.3,0.1,56.8,0,63.8-10
	c0,0,47.2-0.3,95.2,10.8L454.3,234z"/>
<circle class="st2" cx="231.8" cy="229.4" r="37.5"/>
<path class="st0" d="M258.5,208.9c-8.4-10.9-22.5-15.7-35.8-12c16.5,5.7,26.1,22.9,22.4,39.9C253.9,230.3,258.9,219.8,258.5,208.9z"
	/>
<path class="st0" d="M259.9,210.8c-0.3,17.4-13.6,31.9-31,33.6c8.9,6.4,20.4,7.9,30.6,4.1C267.4,237.2,267.5,222.3,259.9,210.8
	L259.9,210.8z"/>
<path class="st0" d="M251.6,256.7c2.5-1.8,4.7-3.9,6.5-6.3c-16.7,5.1-34.6-3.1-41.5-19.1c-3.3,10.4-1.2,21.8,5.5,30.5
	C232.2,264.7,243.1,262.9,251.6,256.7z"/>
<path class="st0" d="M198,230.2c0.3,13.8,9,25.9,21.9,30.8c-10-14.3-7.7-33.9,5.4-45.4C214.3,215.6,204.1,221.1,198,230.2z"/>
<path class="st0" d="M236.1,215.9c2.4,0.8,4.6,1.8,6.8,3.1c-3.5-10.4-11.8-18.4-22.4-21.4c-13,4.6-21.9,16.6-22.5,30.3
	C206.8,216.2,222.1,211.4,236.1,215.9z"/>
<path class="st0" d="M42.2,280.9v11.5h11.3v-3.9l4.2,0.9v2.1c0,0.7-0.1,1.4-0.2,2.1c-0.1,0.5-0.4,1-0.8,1.3
	c-0.4,0.3-0.9,0.6-1.4,0.7c-0.7,0.1-1.4,0.2-2.1,0.2H42.5c-0.7,0-1.4-0.1-2.1-0.2c-0.5-0.1-1-0.3-1.4-0.7c-0.4-0.4-0.6-0.8-0.8-1.3
	c-0.2-0.7-0.2-1.4-0.2-2.1v-9.5c0-0.7,0.1-1.4,0.2-2.1c0.1-0.5,0.4-1,0.8-1.3c0.4-0.3,0.9-0.6,1.4-0.7c0.7-0.1,1.4-0.2,2.1-0.2h10.8
	c0.7,0,1.4,0.1,2.1,0.2c0.5,0.1,1,0.3,1.4,0.7c0.4,0.4,0.6,0.8,0.8,1.3c0.2,0.7,0.2,1.4,0.2,2.1v1.7l-4.2,0.7v-3.4L42.2,280.9z"/>
<path class="st0" d="M78.7,281h3.5l8.9,14.8H87l-1.9-3.3h-9.8l-1.9,3.3h-3.6L78.7,281z M83.7,289.8l-3.5-6.2l-3.3,6.2H83.7z"/>
<path class="st0" d="M105.2,283.6v3.1h9.6c0.6,0,1.2,0,1.8,0.2c0.5,0.1,0.9,0.3,1.2,0.6c0.3,0.3,0.5,0.7,0.6,1.1
	c0.1,0.6,0.2,1.1,0.2,1.7v2c0,0.6,0,1.2-0.2,1.7c-0.1,0.4-0.3,0.8-0.6,1.1c-0.3,0.3-0.8,0.5-1.2,0.6c-0.6,0.1-1.2,0.2-1.8,0.2h-9.6
	c-0.6,0-1.2,0-1.9-0.2c-0.4-0.1-0.8-0.3-1.2-0.5c-0.3-0.3-0.5-0.6-0.7-1c-0.1-0.6-0.2-1.1-0.2-1.7v-0.4l3.3-0.6v1.8h10.9v-3.4h-9.6
	c-0.6,0-1.2,0-1.8-0.2c-0.4-0.1-0.9-0.3-1.2-0.5c-0.3-0.3-0.5-0.7-0.6-1.1c-0.1-0.6-0.2-1.1-0.2-1.7v-1.6c0-0.6,0-1.2,0.2-1.7
	c0.1-0.4,0.3-0.8,0.6-1.1c0.4-0.3,0.8-0.5,1.2-0.5c0.6-0.1,1.2-0.2,1.8-0.2h8.8c1-0.1,2.1,0.1,3,0.6c0.7,0.7,1.1,1.6,0.9,2.6v0.4
	l-3.1,0.7v-1.6L105.2,283.6z"/>
<path class="st0" d="M135.2,283.7v9.2h9.7v-3.1l3.6,0.7v1.8c0,0.6,0,1.2-0.2,1.7c-0.1,0.4-0.3,0.8-0.6,1.1c-0.3,0.3-0.8,0.5-1.2,0.6
	c-0.6,0.1-1.2,0.2-1.8,0.2h-9.2c-0.6,0-1.2,0-1.9-0.2c-0.4-0.1-0.8-0.3-1.2-0.6c-0.3-0.3-0.5-0.7-0.6-1.1c-0.1-0.6-0.2-1.1-0.2-1.7
	v-7.8c0-0.6,0-1.2,0.2-1.7c0.1-0.4,0.3-0.8,0.6-1.1c0.3-0.3,0.7-0.5,1.2-0.6c0.6-0.1,1.2-0.2,1.9-0.2h9.2c0.6,0,1.2,0,1.8,0.2
	c0.4,0.1,0.9,0.3,1.2,0.5c0.3,0.3,0.5,0.7,0.6,1.1c0.1,0.6,0.2,1.1,0.2,1.7v1.4l-3.6,0.6v-2.7L135.2,283.7z"/>
<path class="st0" d="M168,281h3.5l8.9,14.8h-4.1l-1.9-3.3h-9.8l-1.9,3.3h-3.6L168,281z M173,289.8l-3.5-6.2l-3.3,6.2H173z"/>
<path class="st0" d="M191.1,281h10c2.9,0,5.2,0.6,6.6,1.9c1.5,1.4,2.4,3.4,2.2,5.4c0,5-3.3,7.5-9.8,7.5h-9.1L191.1,281z M199.4,293
	c1,0,2-0.1,3-0.2c0.8-0.1,1.5-0.4,2.1-0.8c0.6-0.4,1-0.9,1.3-1.5c0.3-0.8,0.4-1.6,0.4-2.4c0.1-1.3-0.4-2.5-1.3-3.4
	c-1.1-0.8-2.5-1.2-3.9-1.1h-6.4v9.4H199.4z"/>
<path class="st0" d="M222.4,281h15.9v2.6H226v3.2h7.1v2.5H226v3.7h12.4v2.7h-16.1V281z"/>
<path class="st0" d="M279.3,277.7h4.1l10.4,18.1H289l-2.2-4h-11.4l-2.1,4h-4.2L279.3,277.7z M285.1,288.6l-3.9-7.4l-4,7.4H285.1z"/>
<path class="st0" d="M305.2,281h15.9v2.6h-12.3v3.2h7.1v2.5h-7.1v3.7h12.4v2.7h-16V281z"/>
<path class="st0" d="M333.5,281h13.3c0.9-0.1,1.8,0.2,2.6,0.6c0.6,0.6,0.9,1.4,0.8,2.2v3.5c0.1,0.8-0.2,1.6-0.8,2.2
	c-0.8,0.5-1.7,0.7-2.6,0.6h-2l7,5.6h-5.2l-6.2-5.6H337v5.6h-3.6L333.5,281z M337,283.5v4.1h8.2c0.4,0,0.8-0.1,1.2-0.2
	c0.3-0.2,0.5-0.6,0.4-1v-1.7c0.1-0.4-0.1-0.8-0.4-1c-0.4-0.2-0.8-0.3-1.2-0.2L337,283.5z"/>
<path class="st0" d="M363.2,281h3.6v14.8h-3.6V281z"/>
<path class="st0" d="M386.9,281h3.5l8.9,14.8h-4.1l-1.8-3.3h-9.8l-1.9,3.3h-3.6L386.9,281z M391.9,289.8l-3.5-6.2l-3.3,6.2H391.9z"
	/>
<path class="st0" d="M410,281h3.6v12h11.6v2.7H410V281z"/>
<path class="st0" d="M38.4,317.7h15.5c1.1-0.1,2.1,0.2,3,0.8c0.7,0.7,1.1,1.7,1,2.7v4c0.1,1-0.3,2-1,2.7c-0.9,0.6-2,0.9-3.1,0.8
	H42.5v7h-4.1V317.7z M42.5,320.8v4.8H52c0.5,0,1-0.1,1.4-0.3c0.3-0.2,0.5-0.6,0.5-1.2v-1.9c0-0.6-0.2-1-0.5-1.2
	c-0.4-0.2-0.9-0.3-1.4-0.3L42.5,320.8z"/>
<path class="st0" d="M76.4,321H80v5.6h11.3V321h3.6v14.8h-3.6v-6.2H80v6.2h-3.6V321z"/>
<path class="st0" d="M114.6,322.7c0.1-0.4,0.3-0.8,0.6-1.1c0.3-0.3,0.8-0.5,1.2-0.5c0.6-0.1,1.2-0.1,1.8-0.1h11.4
	c0.6,0,1.2,0,1.8,0.1c0.4,0.1,0.8,0.3,1.2,0.5c0.3,0.3,0.5,0.7,0.6,1.1c0.1,0.6,0.2,1.1,0.2,1.7v7.8c0,0.6,0,1.2-0.2,1.7
	c-0.1,0.4-0.3,0.8-0.6,1.1c-0.3,0.3-0.8,0.5-1.2,0.5c-0.6,0.1-1.2,0.2-1.8,0.2h-11.4c-0.6,0-1.2,0-1.9-0.2c-0.4-0.1-0.8-0.3-1.2-0.5
	c-0.3-0.3-0.5-0.7-0.6-1.1c-0.1-0.6-0.2-1.1-0.2-1.7v-7.8C114.4,323.9,114.5,323.3,114.6,322.7z M130,332.9v-9.2h-11.9v9.2H130z"/>
<path class="st0" d="M161.9,335.8h-3.6v-12.1h-7.1V321h17.9v2.7h-7.2V335.8z"/>
<path class="st0" d="M186.9,322.7c0.1-0.4,0.3-0.8,0.6-1.1c0.3-0.3,0.8-0.5,1.2-0.5c0.6-0.1,1.2-0.1,1.8-0.1H202
	c0.6,0,1.2,0,1.8,0.1c0.4,0.1,0.8,0.3,1.2,0.5c0.3,0.3,0.5,0.7,0.6,1.1c0.2,0.6,0.2,1.1,0.2,1.7v7.8c0,0.6,0,1.2-0.2,1.7
	c-0.1,0.4-0.3,0.8-0.6,1.1c-0.3,0.3-0.8,0.5-1.2,0.5c-0.6,0.1-1.2,0.2-1.8,0.2h-11.5c-0.6,0-1.2,0-1.9-0.2c-0.4-0.1-0.8-0.3-1.2-0.5
	c-0.3-0.3-0.5-0.7-0.6-1.1c-0.1-0.6-0.2-1.1-0.2-1.7v-7.8C186.7,323.9,186.8,323.3,186.9,322.7z M202.3,332.9v-9.2h-11.9v9.2H202.3z
	"/>
<path class="st0" d="M228.7,323.7v9.2h11.3v-3.1H234v-2.6h9.4v5.1c0,0.6,0,1.2-0.2,1.7c-0.1,0.4-0.3,0.8-0.6,1.1
	c-0.3,0.3-0.7,0.5-1.2,0.6c-0.6,0.1-1.2,0.2-1.8,0.2h-10.7c-0.6,0-1.2,0-1.9-0.2c-0.4-0.1-0.8-0.3-1.2-0.6c-0.3-0.3-0.5-0.7-0.6-1.1
	c-0.1-0.6-0.2-1.1-0.2-1.7v-7.8c0-0.6,0-1.2,0.2-1.7c0.1-0.4,0.3-0.8,0.6-1.1c0.3-0.3,0.8-0.5,1.2-0.5c0.6-0.1,1.2-0.2,1.8-0.2h10.7
	c1-0.1,2.1,0.1,3,0.7c0.7,0.7,1,1.7,0.9,2.7v0.4l-3.5,0.6v-1.6H228.7z"/>
<path class="st0" d="M262.9,321h13.3c0.9-0.1,1.8,0.2,2.6,0.6c0.6,0.6,0.9,1.4,0.8,2.2v3.5c0.1,0.8-0.2,1.6-0.8,2.2
	c-0.8,0.5-1.7,0.7-2.6,0.6h-2l7,5.6h-5.2l-6.2-5.6h-3.4v5.6h-3.6V321z M266.5,323.5v4.1h8.2c0.4,0,0.8-0.1,1.2-0.2
	c0.3-0.2,0.5-0.6,0.4-1v-1.7c0.1-0.4-0.1-0.8-0.4-1c-0.4-0.2-0.8-0.3-1.2-0.2L266.5,323.5z"/>
<path class="st0" d="M305.5,321h3.5l8.9,14.8h-4.1l-1.9-3.3h-9.8l-1.9,3.3h-3.6L305.5,321z M310.5,329.8l-3.5-6.2l-3.3,6.2H310.5z"
	/>
<path class="st0" d="M334.9,321h13.3c0.9-0.1,1.8,0.2,2.6,0.6c0.6,0.6,0.9,1.4,0.8,2.2v3.3c0.1,0.8-0.2,1.7-0.8,2.2
	c-0.8,0.5-1.7,0.7-2.6,0.6h-9.8v5.8h-3.5V321z M338.5,323.5v4h8.2c0.4,0,0.8-0.1,1.2-0.2c0.3-0.2,0.5-0.6,0.4-1v-1.5
	c0.1-0.4-0.1-0.8-0.4-1c-0.4-0.2-0.8-0.3-1.2-0.2L338.5,323.5z"/>
<path class="st0" d="M370.2,321h3.6v5.6h11.3V321h3.6v14.8h-3.6v-6.2h-11.3v6.2h-3.6L370.2,321z"/>
<path class="st0" d="M414.2,329.1l-8.1-8.1h4.9l5.3,5.5l5.4-5.5h4.2l-8,8.1v6.7h-3.6L414.2,329.1z"/>
<path class="st0" d="M0,220.9l0.3-3.9l0.3-4.7c0.1-0.9,0.1-1.9,0.2-3l0.4-3.4l1-8l1.6-9.4c0.2-1.7,0.7-3.4,1-5.1l1.2-5.4
	c0.4-1.9,0.9-3.7,1.4-5.7l1.6-5.9c0.3-1,0.6-2,0.9-3l1-3.1c0.7-2.1,1.3-4.2,2.1-6.3l2.4-6.4l1.2-3.3L18,141l2.9-6.7
	c1-2.2,2.2-4.4,3.3-6.7l1.7-3.4l1.8-3.3c1.2-2.2,2.5-4.5,3.8-6.8c5.5-9.2,11.5-18,18.1-26.4c6.9-8.6,14.3-16.7,22.3-24.4
	c15.7-14.9,33.5-27.6,52.7-37.6l6.9-3.3c1.1-0.5,2.3-1.2,3.4-1.6l3.4-1.5c2.3-1,4.5-2,6.8-2.9l6.7-2.5c1.1-0.4,2.2-0.9,3.3-1.2
	l3.3-1.1l6.5-2.1l6.3-1.7c2.1-0.5,4.1-1.2,6.1-1.6l5.9-1.3l2.9-0.6c0.9-0.2,1.9-0.3,2.8-0.5l5.4-0.9c1.8-0.3,3.5-0.6,5.1-0.8
	l9.3-1.1l8-0.5l3.4-0.2l3-0.1l4.8-0.1l4-0.1l-4,0.1l-4.8,0.1l-3,0.1l-3.4,0.3l-7.9,0.6l-9.3,1.2c-1.7,0.2-3.4,0.5-5.1,0.8l-5.4,1
	c-0.9,0.2-1.9,0.3-2.8,0.5l-2.9,0.7l-5.9,1.4c-2,0.4-4,1.1-6.1,1.6l-6.3,1.9l-6.4,2.2l-3.3,1.1c-1.1,0.4-2.2,0.8-3.3,1.3l-6.7,2.6
	c-2.2,0.9-4.4,2-6.7,3l-3.4,1.5c-1.1,0.5-2.2,1.1-3.4,1.7l-6.8,3.5c-18.9,10.2-36.3,23-51.7,38c-7.7,7.7-15,15.8-21.7,24.4
	c-6.4,8.4-12.2,17.2-17.4,26.3c-1.2,2.2-2.4,4.5-3.6,6.7l-1.8,3.3l-1.6,3.4c-1,2.2-2.1,4.4-3.1,6.6l-2.8,6.5l-1.3,3.2l-1.2,3.2
	l-2.3,6.3c-0.7,2.1-1.3,4.2-1.9,6.2l-0.9,3c-0.3,1-0.6,2-0.9,3l-1.5,5.8c-0.5,1.9-1,3.7-1.3,5.6l-1.1,5.3c-0.3,1.7-0.7,3.4-1,5
	l-1.4,9.2l-0.8,7.8l-0.4,3.3c-0.1,1.1-0.1,2.1-0.2,3l-0.3,4.7l-0.2,3.9L0,220.9z"/>
<path class="st0" d="M463.8,238l-0.3,3.9l-0.3,4.7c-0.1,0.9-0.1,1.9-0.2,3l-0.4,3.5l-1,8l-1.6,9.4c-0.2,1.7-0.7,3.4-1,5.1l-1.2,5.4
	c-0.4,1.9-0.9,3.7-1.4,5.7l-1.6,5.9c-0.3,1-0.6,2-0.9,3l-1,3.1c-0.7,2.1-1.3,4.2-2.1,6.3l-2.4,6.4l-1.2,3.3l-1.4,3.3l-2.9,6.7
	c-1,2.2-2.2,4.4-3.3,6.7l-1.7,3.4l-1.8,3.3c-1.2,2.2-2.5,4.5-3.8,6.8c-5.5,9.2-11.5,18-18.1,26.4c-6.9,8.6-14.3,16.7-22.3,24.4
	c-15.7,14.9-33.5,27.6-52.7,37.6l-6.9,3.3c-1.1,0.5-2.3,1.1-3.4,1.6l-3.5,1.5c-2.3,1-4.5,2-6.8,2.9l-6.7,2.5
	c-1.1,0.4-2.2,0.9-3.3,1.2l-3.3,1.1l-6.5,2.1l-6.3,1.7c-2.1,0.5-4.1,1.2-6.1,1.6l-5.9,1.3l-2.9,0.6c-0.9,0.2-1.9,0.3-2.8,0.5
	l-5.4,0.9c-1.8,0.3-3.5,0.6-5.1,0.8l-9.3,1.1l-8,0.5l-3.4,0.2l-3,0.1l-4.8,0.1l-4,0.1l4-0.1l4.8-0.1l3-0.1l3.4-0.3l7.9-0.6l9.3-1.2
	c1.7-0.2,3.4-0.5,5.1-0.8l5.4-1c0.9-0.2,1.9-0.3,2.8-0.5l2.9-0.7l5.9-1.4c2-0.4,4-1.1,6.1-1.6l6.3-1.8l6.4-2.2l3.3-1.1
	c1.1-0.4,2.2-0.8,3.3-1.3l6.7-2.6c2.2-0.9,4.5-2,6.7-3l3.4-1.5c1.1-0.5,2.2-1.1,3.4-1.7l6.8-3.5c9.3-5.1,18.2-10.7,26.8-16.9
	c8.8-6.5,17.1-13.5,24.9-21.1c7.7-7.7,15-15.8,21.6-24.4c6.4-8.4,12.2-17.2,17.4-26.3c1.2-2.2,2.4-4.5,3.6-6.7l1.8-3.3l1.6-3.4
	c1-2.2,2.1-4.4,3.1-6.6l2.8-6.6l1.3-3.2l1.2-3.2l2.3-6.3c0.7-2.1,1.3-4.2,1.9-6.2l0.9-3c0.3-1,0.6-2,0.9-3l1.5-5.8
	c0.5-1.9,1-3.7,1.3-5.6l1.1-5.3c0.3-1.7,0.7-3.4,1-5l1.4-9.2l0.8-7.8l0.4-3.3c0.1-1.1,0.1-2.1,0.2-3l0.3-4.7l0.2-4L463.8,238z"/>
<rect x="230.9" y="302.5" class="st3" width="2" height="10"/>
<polygon class="st0" points="231.9,312.5 230.9,307.5 231.9,302.5 232.9,307.5 "/>
<rect x="31.9" y="306.5" class="st3" width="400" height="2"/>
<polygon class="st0" points="31.9,307.5 231.9,306.5 431.9,307.5 231.9,308.5 "/>
</svg>
